<svg width="280" height="32" viewBox="0 0 500 58" fill="none" xmlns="http://www.w3.org/2000/svg">
<path d="M31.8905 0.521729H28.4992C28.4992 0.521729 19.6575 28.4488 0 28.4488V55.2911C16.7749 55.2911 25.1321 27.6421 25.1321 27.6421H27.1911C27.2336 38.2068 24.3305 48.5098 18.9066 57.0435H41.4589C36.0323 48.5122 33.1327 38.2066 33.1865 27.6421H35.2334C35.2334 27.6421 43.5905 55.2911 60.3655 55.2911V28.4488C40.5747 28.4488 31.8905 0.521729 31.8905 0.521729Z" fill="#002a19"/>
<path d="M340.21 10.4102L322.805 47.1548H332.349L334.772 41.6751H352.733L355.156 47.1548H364.7L347.368 10.4102H340.21ZM338.441 33.4556L343.044 23.2194H344.364L348.967 33.4695L338.441 33.4556Z" fill="#002a19"/>
<path d="M428.42 10.4102H408.63V47.1548H428.166C439.648 47.1548 444.517 39.8393 444.517 28.7825C444.517 17.7258 439.212 10.4102 428.42 10.4102ZM428.868 36.6961H416.926V20.8689H428.856C434.065 20.8689 436.015 24.0121 436.015 28.7825C436.015 33.5529 433.725 36.6961 428.868 36.6961Z" fill="#002a19"/>
<path d="M468.196 23.9981H461.837C457.234 23.9981 455.975 23.2888 455.975 21.4669C455.975 18.4628 459.887 18.435 465.022 18.435C470.158 18.435 472.907 18.435 473.404 21.6755H481.809C481.809 15.1806 476.589 9.90949 464.756 9.90949C451.227 9.90949 447.424 13.7898 447.424 21.1748C447.424 27.7672 451.057 32.3011 462.188 32.3011H469.346C471.829 32.3011 474.058 32.5515 474.058 35.0827C474.058 37.8643 471.563 38.0033 465.725 38.0033C458.652 38.0033 456.035 37.7947 455.66 34.4708H446.903C446.903 41.0353 451.227 47.558 464.756 47.558C476.977 47.558 482.609 45.1242 482.609 35.3748C482.609 27.9758 478.006 23.9981 468.196 23.9981Z" fill="#002a19"/>
<path d="M188.569 35.8894C188.604 34.0448 188.172 32.2283 187.325 30.6606C186.477 29.0928 185.252 27.8413 183.797 27.0579C184.887 26.3931 185.79 25.3866 186.401 24.1555C187.012 22.9245 187.306 21.5195 187.249 20.104C187.249 14.3184 182.647 10.5633 176.47 10.5633H154.668V47.0573H176.385C184.681 47.0573 188.569 43.0936 188.569 35.8894ZM162.965 18.6298L175.67 18.5324C177.875 18.5324 179.025 19.5477 179.025 21.314C179.025 23.4419 178.056 24.2625 175.755 24.2625H162.965V18.6298ZM162.965 31.5223H176.639C178.94 31.5223 180.442 32.5376 180.442 34.8741C180.442 36.9046 179.11 37.8086 176.809 37.8086H162.965V31.5223Z" fill="#002a19"/>
<path d="M133.86 47.6556C144.47 47.6556 150.393 41.6752 150.393 29.4919V10.5077H142.084V28.0733C142.084 34.6656 139.868 36.9048 133.945 36.9048C128.022 36.9048 125.636 34.6656 125.636 28.0733V10.5077H117.327V29.4919C117.327 41.6752 123.347 47.6556 133.86 47.6556Z" fill="#002a19"/>
<path d="M90.9963 37.92H101.17C107.347 37.92 114.251 36.0842 114.251 23.7062C114.251 12.4409 106.56 10.5077 100.807 10.5077H82.6392V47.0575H90.9479L90.9963 37.92ZM90.9963 20.4657H101.788C104.21 20.4657 106.209 21.175 106.209 24.4155C106.209 27.6561 104.525 28.3793 102.054 28.3793H90.9963V20.4657Z" fill="#002a19"/>
<path d="M218.885 36.9047H200.5V10.4102H192.191V47.0575H218.885V36.9047Z" fill="#002a19"/>
<path d="M230.561 10.4102H222.252V47.0434H230.561V10.4102Z" fill="#002a19"/>
<path d="M395.125 35.5836H394.507C386.943 28.8074 380.708 20.2775 376.206 10.5494H366.662V47.155H374.971V26.8495H375.588C380.585 35.1013 387.065 42.0257 394.592 47.155H403.434V10.5077H395.125V35.5836Z" fill="#002a19"/>
<path d="M303.002 10.4102H294.693V47.1548H321.388V36.9047H303.002V10.4102Z" fill="#002a19"/>
<path d="M251.878 47.5164C257.098 47.5164 268.253 46.8766 269.755 33.7615H261.664C260.453 37.2385 256.553 37.9339 252.06 37.9339C246.561 37.9339 242.249 35.1523 242.249 28.6434C242.249 22.1345 246.561 19.5059 252.06 19.5059C256.735 19.5059 260.841 20.7437 261.664 23.6783H269.804C268.835 14.0262 261.858 9.90949 251.878 9.90949C246.052 9.90949 233.383 11.5367 233.383 28.6851C233.383 46.1812 246.052 47.5164 251.878 47.5164Z" fill="#002a19"/>
<path d="M493.224 15.7696H494.262V10.6621L496.378 15.7696H496.765L498.86 10.6621V15.7696H500V9.21738H498.413L496.622 13.8162L494.791 9.21738H493.224V15.7696ZM488.951 15.7696H490.09V10.1127H492.064V9.21738H486.956V10.1127H488.951V15.7696Z" fill="#002a19"/>
</svg>
